<svg xmlns="http://www.w3.org/2000/svg" viewBox="0 0 146.55 148.58">
  <defs>
    <style>
      .cls-1 {
        fill: #de4b38;
      }

      .cls-2 {
        fill: #ef99c1;
      }

      .cls-3 {
        fill: #231f20;
      }

      .cls-4 {
        stroke: #231f20;
        stroke-miterlimit: 10;
      }

      .cls-5 {
        fill: #fff;
      }
    </style>
  </defs>
  <g>
    <path class="cls-1" d="M135.87,5.4s-17-2.26-34.95,28.11C83,30.8,59.24,31.34,41.07,34.15,27.18,0,9.41,0,9.41,0c-10,16.67-1.49,48.2,2.05,59.39.19.71.39,1.36.57,1.91,11.2,34.66,46.59,75,53.79,83.63a9.83,9.83,0,0,0,4.83,3.36c3.73,1,7.29-.95,8.62-1.68,13.42-7.45,36.33-56.38,45.65-77.44v0S145.39,27.34,135.87,5.4Z"/>
    <g>
      <path class="cls-2" d="M73.35,106.32a2.05,2.05,0,0,1,.1-.65H72.31c0,.1,0,.2,0,.3a3,3,0,0,1-1.76,2.63c.36,1.54,1,2.81,2.22,2.81.94,0,1.73-1.15,2.2-2.64A2.89,2.89,0,0,1,73.35,106.32Z"/>
      <path class="cls-3" d="M73.38,103.38a13.53,13.53,0,0,1,0-1.67,1.55,1.55,0,0,0,.75-.34c1.14-1,3.2-3.43,5.29-9a1.52,1.52,0,0,0-.88-2,20,20,0,0,0-12.6-.49,1.53,1.53,0,0,0-1,2c1,2.43,3.33,7.16,7.36,9.55h0c.09,1.73,0,4.75-1.64,6.68A5.57,5.57,0,0,1,66.19,110v1a6.52,6.52,0,0,0,5.26-2.2,7.66,7.66,0,0,0,1.4-2.68A6.42,6.42,0,0,0,79.5,111v-1C74.8,110,73.57,106.42,73.38,103.38Z"/>
    </g>
    <g>
      <line class="cls-4" x1="45.86" y1="94.14" x2="0.01" y2="95.03"/>
      <line class="cls-4" x1="50.53" y1="100.71" x2="6.27" y2="106.15"/>
      <line class="cls-4" x1="53.02" y1="107.81" x2="10.91" y2="117.54"/>
    </g>
    <g>
      <line class="cls-4" x1="100.69" y1="93.84" x2="146.54" y2="94.73"/>
      <line class="cls-4" x1="96.02" y1="100.41" x2="140.28" y2="105.84"/>
      <line class="cls-4" x1="93.53" y1="107.5" x2="135.64" y2="117.24"/>
    </g>
    <g>
      <path class="cls-5" d="M51.37,52.81c3,8.51-.3,16.23-2.19,19.63.22,0,.45,0,.68,0,5.93,0,10.74-5.22,10.74-11.67C60.6,54.94,56.39,54.21,51.37,52.81Z"/>
      <path class="cls-5" d="M48.89,52.09c-10.28-2.87-9.77,2.46-9.77,8.72a11.52,11.52,0,0,0,8.15,11.32C44.12,62.25,47,55.27,48.89,52.09Z"/>
      <path d="M51.37,52.81c-.5-.14-1-.28-1.51-.44l-1-.28c-1.89,3.18-4.77,10.16-1.62,20a10,10,0,0,0,1.91.31C51.07,69,54.37,61.32,51.37,52.81Z"/>
    </g>
    <g>
      <path class="cls-5" d="M92.72,54c-4.69,1-8.63,1-8.63,6.56,0,6.44,4.8,11.66,10.71,11.67A35.23,35.23,0,0,1,92.72,54Z"/>
      <path class="cls-5" d="M95.5,53.25c4.34,7.13,3,14.62,1.73,18.69a11.5,11.5,0,0,0,8.34-11.37C105.57,54.22,105.92,50,95.5,53.25Z"/>
      <path d="M95.5,53.25l-.46.14c-.78.25-1.56.45-2.32.62A35.23,35.23,0,0,0,94.8,72.24h0a10,10,0,0,0,2.4-.3C98.52,67.87,99.84,60.38,95.5,53.25Z"/>
    </g>
  </g>
</svg>
