<svg xmlns="http://www.w3.org/2000/svg" viewBox="0 0 150.96 150.59">
  <defs>
    <style>
      .cls-1 {
        fill: #3b7dc0;
      }

      .cls-2 {
        stroke: #231f20;
        stroke-miterlimit: 10;
      }

      .cls-3 {
        fill: #ef99c1;
      }

      .cls-4 {
        fill: #231f20;
      }

      .cls-5 {
        fill: #fff;
      }
    </style>
  </defs>
  <g>
    <path class="cls-1" d="M122,51.78c.53-1.56,8.67-26.26.45-46.32,0,0-8.62-1.1-24,26.3-12.48-4.83-27.18-5.32-39.93-2.14C46.23-.08,37.39,0,37.39,0c-10.12,18.31-5.62,42.69-5,45.8-.36.54-.73,1.08-1,1.65-1,1.72-2.6,4.9-3.78,12.37-5.34,34,9.74,82.48,40.16,89.81a35.19,35.19,0,0,0,16.3,0C117,141.64,139.24,84.07,122,51.78Z"/>
    <g>
      <line class="cls-2" x1="45.86" y1="101.4" x2="0.01" y2="102.29"/>
      <line class="cls-2" x1="50.53" y1="107.97" x2="6.27" y2="113.4"/>
      <line class="cls-2" x1="53.02" y1="115.06" x2="10.91" y2="124.8"/>
    </g>
    <g>
      <line class="cls-2" x1="105.1" y1="100.82" x2="150.95" y2="101.71"/>
      <line class="cls-2" x1="102.04" y1="108.96" x2="146.31" y2="114.39"/>
      <line class="cls-2" x1="98.65" y1="115.64" x2="140.76" y2="125.37"/>
    </g>
    <g>
      <path class="cls-3" d="M75.56,110.36a2.74,2.74,0,0,0-.12-.81h1.41c0,.13,0,.25,0,.37A3.78,3.78,0,0,0,79,113.18c-.09,3-.44,5.27-2.74,5.27s-2.74-2.26-2.74-5.06A3.6,3.6,0,0,0,75.56,110.36Z"/>
      <path class="cls-4" d="M76.86,104.41c5-3,7.88-8.8,9.1-11.8a1.89,1.89,0,0,0-1.21-2.53,24.65,24.65,0,0,0-15.58.61,1.89,1.89,0,0,0-1.1,2.44c2.59,6.86,5.14,9.87,6.55,11.1a1.84,1.84,0,0,0,.92.42,18,18,0,0,1,0,2.07C75.28,110.48,73.77,115,68,115v1.24c4.21,0,7-2.12,8.23-6a9.35,9.35,0,0,0,1.73,3.32,8.06,8.06,0,0,0,6.51,2.72V115a6.88,6.88,0,0,1-5.56-2.27c-2-2.39-2.14-6.13-2-8.26Z"/>
    </g>
    <g>
      <ellipse class="cls-5" cx="54.97" cy="74.21" rx="10.74" ry="11.67"/>
      <ellipse class="cls-4" cx="55" cy="71" rx="8.16" ry="7.48" transform="translate(-34.6 64.82) rotate(-48.29)"/>
    </g>
    <g>
      <ellipse class="cls-5" cx="99.95" cy="73.97" rx="10.74" ry="11.67"/>
      <ellipse class="cls-4" cx="100.16" cy="71" rx="7.56" ry="8.25" transform="matrix(0.75, -0.67, 0.67, 0.75, -21.86, 84.63)"/>
    </g>
  </g>
</svg>
