<svg xmlns="http://www.w3.org/2000/svg" viewBox="0 0 151.82 116.28">
  <defs>
    <style>
      .cls-1 {
        fill: #e3b264;
      }

      .cls-2 {
        fill: #fff;
      }

      .cls-3 {
        stroke: #231f20;
        stroke-miterlimit: 10;
      }

      .cls-4 {
        fill: #231f20;
      }
    </style>
  </defs>
  <title>Asset 7</title>
  <g id="Layer_2" data-name="Layer 2">
    <g id="Layer_1-2" data-name="Layer 1">
      <g>
        <path class="cls-1" d="M122.9,30.94h0S121.22,12.38,115.49,0c0,0-4.44,3.42-8.26,13.48-23-7.2-57.57-.59-63.83.71C39.62,5.3,35.19,1.81,35.19,1.81c-5.33,6.4-7.36,26.63-7.76,31.3,0,.17,0,.35,0,.52s0,.45,0,.45h0c-.79,10.71.55,25.55.31,44.37,0,.65,0,13.79,1,19.37.81,4.7.11,4.31,3.17,8.37,1.93,2.56,4.46,3.89,7.27,5.28,21.38,10.56,69.29,1.06,77.35-3.3a12.35,12.35,0,0,0,3.83-3.3c.49-.7,1.47-2.27,2.36-6.61a44,44,0,0,0,.88-6.93C123.56,88.94,124.85,48.44,122.9,30.94Z"/>
        <g>
          <path class="cls-2" d="M58.14,48.7a6.61,6.61,0,0,1-9.06-2.27A6.86,6.86,0,0,1,49,38.78c-3.88,1.21-6.77,2.15-6.77,6.36,0,5.47,4.08,9.9,9.11,9.9,4.8,0,8.73-4,9.08-9.15A5.92,5.92,0,0,1,58.14,48.7Z"/>
          <path d="M49.08,46.43a6.61,6.61,0,0,0,9.06,2.27,5.92,5.92,0,0,0,2.24-2.81c0-.25,0-.5,0-.75,0-5.47-3.07-9.45-7.76-7.61-1.29.5-2.54.89-3.7,1.25A6.86,6.86,0,0,0,49.08,46.43Z"/>
        </g>
        <g>
          <path class="cls-2" d="M104.33,41.86a6.48,6.48,0,0,1-1.84,7.49c-2.78,2.19-7,1.49-9.35-1.55s-2.06-7.27.72-9.45a6,6,0,0,1,1.35-.79c-5-1.33-8.32,2.57-8.32,7.58C86.89,50.61,91,55,96,55s9.12-4.43,9.12-9.9A5.87,5.87,0,0,0,104.33,41.86Z"/>
          <path d="M93.14,47.8c2.38,3,6.57,3.74,9.35,1.55a6.48,6.48,0,0,0,1.84-7.49c-1.36-2.13-4.34-2.3-7.7-3.8a10.09,10.09,0,0,0-1.42-.5,6,6,0,0,0-1.35.79C91.08,40.53,90.75,44.76,93.14,47.8Z"/>
        </g>
        <g>
          <line class="cls-3" x1="45.86" y1="71.92" x2="0.01" y2="72.81"/>
          <line class="cls-3" x1="50.53" y1="78.49" x2="6.27" y2="83.92"/>
          <line class="cls-3" x1="53.02" y1="85.58" x2="10.91" y2="95.32"/>
        </g>
        <g>
          <line class="cls-3" x1="105.96" y1="70.77" x2="151.81" y2="71.66"/>
          <line class="cls-3" x1="102.9" y1="78.9" x2="147.17" y2="84.34"/>
          <line class="cls-3" x1="99.51" y1="85.58" x2="141.62" y2="95.32"/>
        </g>
        <path class="cls-4" d="M76.94,81.37a15.84,15.84,0,0,1,0-1.68,1.55,1.55,0,0,0,.75-.34c1.14-1,3.2-3.42,5.29-9a1.53,1.53,0,0,0-.88-2,20,20,0,0,0-12.6-.49,1.53,1.53,0,0,0-1,2c1,2.43,3.33,7.16,7.36,9.55h0c.09,1.72,0,4.74-1.64,6.67A5.57,5.57,0,0,1,69.76,88v1A6.52,6.52,0,0,0,75,86.82a7.57,7.57,0,0,0,1.4-2.68A6.41,6.41,0,0,0,83.07,89V88C78.37,88,77.14,84.4,76.94,81.37Z"/>
      </g>
    </g>
  </g>
</svg>
