<svg xmlns="http://www.w3.org/2000/svg" viewBox="0 0 151.82 105.73">
  <defs>
    <style>
      .cls-1 {
        fill: #e3b264;
      }

      .cls-2 {
        fill: #fff;
      }

      .cls-3 {
        stroke: #231f20;
        stroke-miterlimit: 10;
      }

      .cls-4 {
        fill: #231f20;
      }
    </style>
  </defs>
  <g>
    <path class="cls-1" d="M140.36,35.61s-3-16.34-17-23.36a121.87,121.87,0,0,0-16.7-6.92l-.08,0A108.06,108.06,0,0,0,60,.81s-14.94.41-36.15,11C9.9,18.87,7,35.22,7,35.22a68.84,68.84,0,0,0,18.71-.78c0,8.51.66,19.42.48,33.47,0,.65,0,13.79,1,19.37.8,4.7.1,4.3,3.16,8.37,1.93,2.56,4.46,3.89,7.27,5.28,21.39,10.56,69.29,1,77.35-3.3a12.31,12.31,0,0,0,3.83-3.31c.49-.69,1.47-2.27,2.36-6.6a44.11,44.11,0,0,0,.88-6.93c.06-1.86.85-26.67.28-45.86A68.47,68.47,0,0,0,140.36,35.61Z"/>
    <g>
      <path class="cls-2" d="M58.14,41.66a6.62,6.62,0,0,1-9.06-2.27A6.86,6.86,0,0,1,49,31.74c-3.88,1.2-6.77,2.15-6.77,6.35,0,5.47,4.08,9.91,9.11,9.91,4.8,0,8.73-4,9.08-9.15A6,6,0,0,1,58.14,41.66Z"/>
      <path d="M49.08,39.39a6.62,6.62,0,0,0,9.06,2.27,6,6,0,0,0,2.24-2.81c0-.25,0-.5,0-.76,0-5.47-3.07-9.44-7.76-7.61-1.29.51-2.54.89-3.7,1.26A6.86,6.86,0,0,0,49.08,39.39Z"/>
    </g>
    <g>
      <path class="cls-2" d="M104.33,34.81a6.49,6.49,0,0,1-1.84,7.5c-2.78,2.18-7,1.49-9.35-1.55a6.72,6.72,0,0,1,.72-9.46,5.91,5.91,0,0,1,1.35-.78c-5-1.34-8.32,2.57-8.32,7.57C86.89,43.56,91,48,96,48s9.12-4.44,9.12-9.91A5.89,5.89,0,0,0,104.33,34.81Z"/>
      <path d="M93.14,40.76c2.38,3,6.57,3.73,9.35,1.55a6.49,6.49,0,0,0,1.84-7.5c-1.36-2.12-4.34-2.3-7.7-3.8a8.88,8.88,0,0,0-1.42-.49,5.91,5.91,0,0,0-1.35.78A6.72,6.72,0,0,0,93.14,40.76Z"/>
    </g>
    <g>
      <line class="cls-3" x1="45.86" y1="64.87" x2="0.01" y2="65.76"/>
      <line class="cls-3" x1="50.53" y1="71.44" x2="6.27" y2="76.88"/>
      <line class="cls-3" x1="53.02" y1="78.54" x2="10.91" y2="88.27"/>
    </g>
    <g>
      <line class="cls-3" x1="105.96" y1="63.72" x2="151.81" y2="64.61"/>
      <line class="cls-3" x1="102.9" y1="71.86" x2="147.17" y2="77.29"/>
      <line class="cls-3" x1="99.51" y1="78.54" x2="141.62" y2="88.27"/>
    </g>
    <path class="cls-4" d="M76.94,74.32a15.84,15.84,0,0,1,0-1.68,1.45,1.45,0,0,0,.75-.33c1.14-1,3.2-3.43,5.29-9a1.52,1.52,0,0,0-.88-2,19.93,19.93,0,0,0-12.6-.49,1.53,1.53,0,0,0-1,2c1,2.42,3.33,7.15,7.36,9.54h0c.09,1.72,0,4.75-1.64,6.68A5.56,5.56,0,0,1,69.76,81v1A6.52,6.52,0,0,0,75,79.78a7.7,7.7,0,0,0,1.4-2.69A6.41,6.41,0,0,0,83.07,82V81C78.37,81,77.14,77.36,76.94,74.32Z"/>
  </g>
</svg>
