<svg xmlns="http://www.w3.org/2000/svg" viewBox="0 0 143.12 116.59">
  <defs>
    <style>
      .cls-1 {
        fill: #3d9954;
      }

      .cls-2 {
        stroke: #231f20;
        stroke-miterlimit: 10;
      }

      .cls-3 {
        fill: #fff;
      }

      .cls-4 {
        fill: #231f20;
      }
    </style>
  </defs>
  <g>
    <path class="cls-1" d="M113.44,3.11s-18.12,10.75-25,25.42a67.53,67.53,0,0,0-32.15-.35C50.62,12.13,30.2,0,30.2,0,12.51,30.28,15.67,52.06,17.34,58.83c-.21.74-.41,1.48-.57,2.24-4.63,21.08,3.56,37.53,25.9,49,19.89,10.22,51.9,9,69.66-7.77,10.33-9.75,16.61-24.72,13.74-39.47C127.62,57.29,132,34.88,113.44,3.11Z"/>
    <g>
      <line class="cls-2" x1="45.86" y1="78.47" x2="0.01" y2="79.36"/>
      <line class="cls-2" x1="48.92" y1="86.6" x2="4.65" y2="92.04"/>
      <line class="cls-2" x1="52.31" y1="93.28" x2="10.2" y2="103.02"/>
    </g>
    <g>
      <line class="cls-2" x1="97.27" y1="77.04" x2="143.12" y2="77.93"/>
      <line class="cls-2" x1="94.21" y1="85.18" x2="138.47" y2="90.61"/>
      <line class="cls-2" x1="90.81" y1="91.86" x2="132.93" y2="101.59"/>
    </g>
    <g>
      <ellipse class="cls-3" cx="48.9" cy="54.47" rx="9.11" ry="9.91"/>
      <ellipse class="cls-4" cx="48.9" cy="54.47" rx="5.91" ry="5.41" transform="translate(-24.3 54.73) rotate(-48.29)"/>
    </g>
    <g>
      <ellipse class="cls-3" cx="93.37" cy="53.94" rx="9.11" ry="9.91"/>
      <ellipse class="cls-4" cx="93.37" cy="53.94" rx="5.41" ry="5.91" transform="translate(-12.22 75.79) rotate(-41.71)"/>
    </g>
    <path d="M77.16,75.28a20,20,0,0,0-12.59.49,1.53,1.53,0,0,0-.89,2c2.09,5.55,4.16,8,5.29,9a1.59,1.59,0,0,0,.76.34,8.88,8.88,0,0,1-1.65,5.37l.76.64a7.64,7.64,0,0,0,1.42-2.74,8.66,8.66,0,0,0,1.35,2.74l.81-.61a9.34,9.34,0,0,1-1.65-4.84c0-.26,0-.5,0-.74h0c4-2.4,6.38-7.12,7.36-9.55A1.52,1.52,0,0,0,77.16,75.28Z"/>
  </g>
</svg>
